<?xml version="1.0" standalone="no"?>
<!DOCTYPE svg PUBLIC "-//W3C//DTD SVG 1.1//EN" "http://www.w3.org/Graphics/SVG/1.1/DTD/svg11.dtd" >
<svg xmlns="http://www.w3.org/2000/svg" xmlns:xlink="http://www.w3.org/1999/xlink" version="1.1">
<metadata></metadata>
<defs>
<font id="jaapokkiregularregular" horiz-adv-x="1228" >
<font-face units-per-em="2048" ascent="1638" descent="-410" />
<missing-glyph horiz-adv-x="614" />
<glyph horiz-adv-x="0" />
<glyph unicode="&#xd;" horiz-adv-x="681" />
<glyph unicode=" "  horiz-adv-x="614" />
<glyph unicode="&#x09;" horiz-adv-x="614" />
<glyph unicode="&#xa0;" horiz-adv-x="614" />
<glyph unicode="!" horiz-adv-x="473" d="M102 0h269v268h-269v-268zM109 406h262v1118h-262v-1118z" />
<glyph unicode="&#x22;" horiz-adv-x="1013" d="M133 1456l12 -428h150l127 428h-289zM592 1456l12 -428h150l127 428h-289z" />
<glyph unicode="#" horiz-adv-x="1607" d="M92 418v190h320l104 297h-321v191h389l151 430h183l-152 -430h283l151 430h184l-147 -430h268v-191h-334l-102 -297h336v-190h-401l-146 -428h-201l152 428h-281l-149 -428h-186l151 428h-252zM596 608h281l104 297h-281z" />
<glyph unicode="$" horiz-adv-x="1222" d="M92 227l209 197q125 -135 301 -158v344h-2l-10 2q-137 35 -217 90q-174 115 -185 324q-10 172 105 293q121 127 309 141v182h143v-190q139 -23 312 -135l47 -31l-150 -244l-51 33q-103 66 -158 82v-295q176 -70 273 -174q113 -125 112 -280q0 -158 -114 -285 q-109 -121 -271 -143v-187h-143v187q-88 8 -168 30q-197 61 -342 217zM475 1038q2 -88 127 -131v262q-70 -14 -102 -49q-27 -27 -25 -82zM745 272q49 18 74 61.5t25 74.5q-1 74 -99 137v-273z" />
<glyph unicode="%" d="M41 -53l139 -72l994 1608l-144 71zM111 1018q-8 82 41 142.5t133 70.5q80 10 142 -40t70.5 -132t-40.5 -143.5t-131 -71.5q-82 -8 -143.5 41t-71.5 133zM217 1028q4 -39 32.5 -61.5t67.5 -18.5q37 4 58.5 33t15.5 68q-10 88 -94 73q-41 -4 -62.5 -27.5t-17.5 -66.5z M713 381q-8 84 42 144.5t132 68.5q82 10 143.5 -40t69.5 -132t-42 -143.5t-130 -71.5q-82 -8 -143.5 42t-71.5 132zM819 393q4 -39 32 -61.5t67 -20.5q37 4 59 33t18 66q-8 84 -94 77q-41 -4 -63.5 -28.5t-18.5 -65.5z" />
<glyph unicode="&#x26;" horiz-adv-x="1214" d="M102 408q0 229 187 366q-121 115 -121 291q0 172 122 281.5t300 109.5t301 -108.5t123 -282.5h-236q0 80 -56 118t-132 38t-131.5 -42t-55.5 -114q0 -82 67 -137.5t156 -74.5t195 -19v-213q-119 0 -280 34q-70 -27 -115 -58.5t-62.5 -68t-21.5 -61.5t-4 -59 q0 -100 67.5 -154.5t188.5 -54.5q115 0 199 74.5t84 154.5v123h235v-551h-229l-6 117q-37 -66 -121 -106t-162 -40q-211 0 -351.5 114t-140.5 323z" />
<glyph unicode="'" horiz-adv-x="247" d="M2 1028h129l148 428h-269z" />
<glyph unicode="(" horiz-adv-x="645" d="M92 659q0 -262 55 -493q55 -227 164 -426l4 -8l228 75l-6 11q-109 225 -152 409q-18 84 -33 201q-10 117 -10 231q0 113 10 230q14 117 33 201q43 188 152 409l6 10l-228 76l-4 -8q-109 -199 -164 -426q-55 -229 -55 -492z" />
<glyph unicode=")" horiz-adv-x="645" d="M102 -193l228 -75l4 8q109 199 164 426q55 231 55 493t-55 492q-55 227 -164 426l-4 8l-228 -76l7 -10q109 -221 151 -409q18 -84 33 -201q10 -117 10 -230q0 -115 -10 -231q-14 -117 -33 -201q-43 -184 -151 -409z" />
<glyph unicode="*" horiz-adv-x="1110" d="M123 1024l227 139l-227 140l139 165l184 -112v280h218v-280l184 112l139 -165l-227 -140l227 -139l-139 -166l-184 113v-219h-218v219l-184 -113z" />
<glyph unicode="+" horiz-adv-x="966" d="M92 358v238h273v272h237v-272h272v-238h-272v-272h-237v272h-273z" />
<glyph unicode="," horiz-adv-x="491" d="M100 -272h150l213 559l-291 -4z" />
<glyph unicode="-" horiz-adv-x="966" d="M133 358h701v238h-701v-238z" />
<glyph unicode="." horiz-adv-x="452" d="M92 0h268v268h-268v-268z" />
<glyph unicode="/" horiz-adv-x="980" d="M72 -57l110 -49l707 1247l-111 51z" />
<glyph unicode="0" horiz-adv-x="1347" d="M102 715q0 307 168 525t403.5 218t403.5 -218t168 -525q0 -309 -167 -526.5t-404.5 -217.5t-404.5 217.5t-167 526.5zM389 715q0 -109 31 -201q27 -86 78 -152q82 -104 176 -104q98 0 176 104q51 66 78 152q31 92 30 201q0 104 -30 200q-31 90 -78 150q-78 106 -176 106 q-92 0 -176 -106q-47 -59 -78 -150q-31 -96 -31 -200z" />
<glyph unicode="1" horiz-adv-x="942" d="M133 0v289h205v856h-205v289h494v-1145h182v-289h-676z" />
<glyph unicode="2" horiz-adv-x="1236" d="M102 0l473 657q-39 10 -73 25q-74 31 -129 86q-55 51 -88 129q-33 82 -33 160q0 76 33 157q31 76 88 129q59 59 129 89q74 31 157.5 30.5t157.5 -30.5q70 -29 129 -89q57 -53 88 -129q33 -82 33 -157q0 -78 -33 -160q-8 -20 -127 -186t-231 -322l-115 -153h543v-236 h-1002zM496 1071q0 -61 44 -105t105.5 -44t104.5 44t43 105q0 59 -43 103.5t-104.5 44.5t-105.5 -44.5t-44 -103.5z" />
<glyph unicode="3" horiz-adv-x="1085" d="M113 389h235q4 -78 60.5 -130t134.5 -52q82 0 138 56t56 138q0 80 -54 138.5t-130 58.5h-156v236h166q68 0 121 59t53 135q0 80 -56 137.5t-138 57.5q-78 0 -134.5 -53.5t-60.5 -131.5h-235q4 84 32 156q35 80 93 137q68 63 137 92q82 35 168 35t168 -35q70 -29 137 -92 q57 -57 92 -137q33 -78 33 -166q0 -90 -33 -168q-35 -80 -92 -137q-2 -2 -5 -4t-5 -4q6 -6 10 -8q59 -61 92 -138q33 -78 33 -168t-33 -168q-33 -76 -92 -137q-61 -59 -137 -92q-78 -33 -168 -33t-168 33q-76 33 -137 92q-59 61 -93 137q-29 72 -32 156z" />
<glyph unicode="4" d="M143 367v264l428 803h365v-836h160v-231h-160v-367h-266v367h-527zM395 598h275v532z" />
<glyph unicode="5" horiz-adv-x="1226" d="M113 694l176 742h766v-236h-578l-63 -244q90 37 190 37q109 0 199 -41q88 -35 162 -108q72 -72 110 -162q39 -92 39 -199q0 -109 -39 -198q-41 -94 -110 -164q-74 -74 -162 -109q-98 -41 -199 -41q-104 0 -198 41q-92 37 -164 109q-66 70 -101 143l195 82 q37 -63 100.5 -101t138.5 -38q115 0 195 81t80 195.5t-81 194.5t-194 80q-147 0 -229 -123z" />
<glyph unicode="6" horiz-adv-x="1171" d="M102 416q0 92 37 174l432 846h328l-293 -576q74 -6 148 -35q84 -35 147 -94q68 -66 100 -141q37 -82 37 -174t-37 -172q-35 -82 -100 -142q-66 -63 -147 -96q-92 -35 -183 -35q-94 0 -182 35q-82 33 -149 96q-59 55 -101 142q-37 80 -37 172zM385 412q0 -88 54.5 -148.5 t132 -60.5t131 60.5t53.5 148.5t-53.5 148.5t-131 60.5t-132 -60.5t-54.5 -148.5z" />
<glyph unicode="7" horiz-adv-x="1249" d="M113 2l610 1147h-590v287h1045l-746 -1434h-319z" />
<glyph unicode="8" horiz-adv-x="1173" d="M133 408q0 172 121 297q29 29 37 34q-2 2 -5 4t-5 5q-109 121 -109 286q0 164 109 285q59 66 133 98q88 39 174 39t174 -39q74 -33 133 -98q109 -121 109 -285q0 -166 -109 -286q-2 -2 -5 -4.5t-5 -4.5q12 -9 37 -34q119 -123 118 -297q0 -172 -118 -297 q-57 -61 -144 -101q-90 -39 -190 -39q-104 0 -190.5 39t-143.5 101q-121 127 -121 297zM414 408q0 -84 51 -142.5t122.5 -58.5t123 58.5t51.5 142.5t-51.5 143t-123 59t-122.5 -59t-51 -143zM426 1034q0 -78 47 -132t115 -54q66 0 114 55t48 131t-48 131.5t-114 55.5 q-68 0 -115 -54.5t-47 -132.5z" />
<glyph unicode="9" horiz-adv-x="1202" d="M133 1022q0 92 37 174q33 76 100 141q66 63 148 97q88 35 182 34.5t182 -34.5q84 -35 150 -97q63 -59 100 -141q37 -84 37 -174q0 -88 -37 -172l-432 -873h-328l293 603q-80 6 -147 32q-82 33 -148 97q-68 66 -100 141q-37 84 -37 172zM412 1028q0 -88 55 -150.5 t133 -62.5q80 0 134 61.5t54 151.5q0 88 -54 150.5t-134 62.5q-78 0 -133 -62.5t-55 -150.5z" />
<glyph unicode=":" horiz-adv-x="432" d="M82 98h268v269h-268v-269zM82 614h268v269h-268v-269z" />
<glyph unicode=";" horiz-adv-x="526" d="M94 -207h150l192 559l-270 -4zM166 614h268v269h-268v-269z" />
<glyph unicode="&#x3c;" horiz-adv-x="1122" d="M113 512l790 -389l105 211l-574 282l576 279l-103 213l-794 -385v-211z" />
<glyph unicode="=" horiz-adv-x="1048" d="M92 199h864v237h-864v-237zM92 623h864v237h-864v-237z" />
<glyph unicode="&#x3e;" horiz-adv-x="1122" d="M113 895l575 -279l-573 -282l104 -211l789 389v211l-793 385z" />
<glyph unicode="?" d="M197 1151l229 -49q20 90 91 138t151 48q104 0 156.5 -61.5t52.5 -169.5q0 -92 -36 -150.5t-112 -118.5q-80 -63 -115.5 -100t-64.5 -110.5t-29 -180.5v-57h236v57q0 72 36.5 134.5t89 112.5t104.5 103.5t89 133.5t37 176q0 215 -127 350q-121 117 -317 117 q-168 0 -301.5 -104.5t-169.5 -268.5zM522 0v233h234v-233h-234z" />
<glyph unicode="@" horiz-adv-x="2260" d="M133 440q0 201 78 387q78 180 215 318q139 139 317 213q184 80 387 80q205 0 392 -86q180 -82 315 -224q139 -143 215 -322t76 -366q0 -207 -92 -366q-80 -139 -209 -193q-117 -53 -244 -18q-104 29 -172 104q-43 49 -63 117q-131 -111 -304 -111q-195 0 -332 136.5 t-137 331t137.5 330.5t331.5 136q172 0 304 -110l20 84h197v-717q0 -31 22.5 -53.5t54.5 -30.5q16 -4 37 -4q98 0 162 110q61 104 62 254q0 147 -64.5 289.5t-170 248t-248 170t-290.5 64.5q-319 0 -545.5 -226t-226.5 -546q0 -244 142 -444q116 -170 309 -258l-94 -205 q-248 115 -400 334q-182 258 -182 573zM846 440q0 -96 67 -170q70 -70 164 -69q96 -1 162 69q68 70 68 170q0 102 -68 170q-66 70 -162 70q-94 0 -164 -70q-68 -72 -67 -170z" />
<glyph unicode="A" horiz-adv-x="1636" d="M72 0l731 1436h84l678 -1436h-318l-125 266h-594l-135 -266h-321zM676 553h311l-149 319z" />
<glyph unicode="B" horiz-adv-x="1132" d="M113 0v1434h391q174 0 297 -123t123 -297q0 -129 -74 -236q170 -129 170 -344q0 -180 -127 -307t-307 -127h-473zM367 866h125q63 0 114 47.5t51 119t-51 116.5t-114 45h-125v-328zM373 244h209q72 0 124 50t52 121.5t-52.5 123t-123.5 51.5h-209v-346z" />
<glyph unicode="C" horiz-adv-x="1484" d="M133 715q0 307 218 525t526 218q255 0 458 -158l-184 -213q-102 66 -226 71h-23q-110 0 -204 -44q-104 -49 -174.5 -154.5t-70.5 -244.5q0 -145 73.5 -254t181.5 -156q88 -38 188 -38q23 -1 46 1q127 10 225 86l185 -211q-209 -172 -475 -172q-307 0 -525.5 218.5 t-218.5 525.5z" />
<glyph unicode="D" horiz-adv-x="1388" d="M133 2v1434h406q145 0 278 -56q129 -55 227 -153q102 -102 154 -230q57 -129 57 -278q0 -152 -57 -281q-51 -129 -154 -227q-104 -104 -227 -154q-129 -57 -278 -57h-289v2h-117zM420 287h119q178 0 304 127t126 305t-126 304t-304 126h-119v-862z" />
<glyph unicode="E" horiz-adv-x="1222" d="M133 0v1436h957v-287h-670v-264h553v-287h-553v-311h663v-287h-950z" />
<glyph unicode="F" horiz-adv-x="1171" d="M113 0v1436h956v-287h-670v-264h553v-287h-553v-598h-286z" />
<glyph unicode="G" horiz-adv-x="1740" d="M133 721q2 305 220 520t524 215h6q256 -2 456 -164l-206 -202q-111 76 -252 79h-4q-188 0 -322 -133q-135 -131 -135 -319v-11q0 -181 129 -313q133 -137 321 -137h7q184 0 319 131q92 88 123 211h-332v287h621v-885h-287v143q-211 -168 -453 -168q-309 4 -523 221 q-212 214 -212 519v6z" />
<glyph unicode="H" horiz-adv-x="1370" d="M133 0v1434h287v-549h530v549h287v-1434h-287v598h-530v-598h-287z" />
<glyph unicode="I" horiz-adv-x="858" d="M133 0v287h154v862h-154v287h592v-287h-152v-862h152v-287h-592z" />
<glyph unicode="J" horiz-adv-x="1116" d="M72 471v2h286v-2q0 -76 54 -129q55 -55 131 -55q74 0 129 55q53 53 53 129v2h6v703h-303l6 260h580v-963h-2v-2q0 -195 -137.5 -333t-332 -138t-332.5 138t-138 333z" />
<glyph unicode="K" horiz-adv-x="1372" d="M133 2v1434h287v-463l420 463h387l-502 -562l514 -872h-342l-367 655l-110 -112v-543h-287z" />
<glyph unicode="L" horiz-adv-x="1087" d="M133 2v1434h287v-1149h534v-285h-821z" />
<glyph unicode="M" horiz-adv-x="1662" d="M133 0h287v879l411 -375l412 375v-879h287v1436h-100l-599 -545l-600 545h-98v-1436z" />
<glyph unicode="N" horiz-adv-x="1435" d="M133 0h287v838l807 -838h76v1436h-287v-803l-793 803h-90v-1436z" />
<glyph unicode="O" horiz-adv-x="1712" d="M113 719q0 307 218 525t525 218t525 -218t218 -525t-218 -525.5t-525 -218.5t-525 218.5t-218 525.5zM408 718.5q0 -186.5 131 -317.5t317 -131t317.5 131t131.5 317.5t-131.5 317.5t-317.5 131t-317 -131t-131 -317.5z" />
<glyph unicode="P" horiz-adv-x="1116" d="M129 0v1436h465q178 0 304 -127t126 -305.5t-126 -304.5t-304 -126h-178v-573h-287zM416 860h178q59 0 101 42t42 101.5t-42 102.5t-101 43h-178v-289z" />
<glyph unicode="Q" horiz-adv-x="1712" d="M113 719q0 307 218 525t525 218t525 -218t218 -525q0 -258 -157.5 -459t-401.5 -262h324v-287h-805l150 279q-258 51 -427 256t-169 473zM399 718.5q0 -190.5 133.5 -323.5t324 -133t323.5 133t133 323.5t-133 324t-323.5 133.5t-324 -133.5t-133.5 -324z" />
<glyph unicode="R" horiz-adv-x="1198" d="M113 2v1436h540q178 0 304 -127t126 -305q0 -129 -68.5 -234.5t-183.5 -157.5l285 -614h-305l-268 575h-144v-573h-286zM399 862h254q59 0 101.5 42t42.5 101.5t-42.5 102.5t-101.5 43h-254v-289z" />
<glyph unicode="S" horiz-adv-x="1222" d="M92 223l209 197q152 -162 385 -162q78 0 118 51t40 94q0 119 -238 201l-6 2l-10 2q-137 35 -217 90q-174 115 -185 324q-1 14 -1 27q0 154 106 266q72 74 167 107.5t167 33.5q96 0 184 -24.5t131 -48t115 -70.5l47 -31l-150 -244l-51 33q-59 37 -88 53.5t-79 30.5 t-109 14q-20 0 -61.5 -14t-65.5 -39q-25 -25 -25 -75v-7q2 -55 44 -89t140 -58q16 -4 41 -13q207 -72 318 -190q112 -124 112 -278q0 -161 -114 -287q-131 -147 -330 -148q-135 0 -252 35q-197 61 -342 217z" />
<glyph unicode="T" horiz-adv-x="1288" d="M102 1149v287h1084v-287h-398v-1149h-286v1149h-400z" />
<glyph unicode="U" horiz-adv-x="1316" d="M102 528v908h287v-906q0 -111 80 -190q78 -78 190 -78q111 0 189 78q76 76 80 188h-2v908h286v-906h2q0 -229 -162.5 -392t-392 -163t-392.5 162t-165 391z" />
<glyph unicode="V" horiz-adv-x="1587" d="M102 1436h318l375 -815l372 815h318l-647 -1436h-86z" />
<glyph unicode="W" horiz-adv-x="2199" d="M133 1436h318l383 -807l127 241l-277 566h317l373 -795l375 795h317l-657 -1436h-70l-239 526l-242 -526h-70z" />
<glyph unicode="X" horiz-adv-x="1495" d="M61 0l510 717l-510 719h353l334 -471l333 471h353l-510 -719l510 -717h-353l-333 469l-334 -469h-353z" />
<glyph unicode="Y" horiz-adv-x="1406" d="M92 1436h318l295 -541l292 541h318l-467 -910v-526h-287v526z" />
<glyph unicode="Z" horiz-adv-x="1509" d="M113 0h1259v266h-749l794 1086v84h-1175v-269h663l-792 -1085v-82z" />
<glyph unicode="[" horiz-adv-x="802" d="M164 -393h475v235h-240v1499h240v236h-475v-1970z" />
<glyph unicode="]" horiz-adv-x="802" d="M164 -158v-235h475v1970h-475v-236h239v-1499h-239z" />
<glyph unicode="_" d="M96 0h1049v238h-1049v-238z" />
<glyph unicode="`" horiz-adv-x="710" d="M72 1757l444 -207l123 88l-332 287z" />
<glyph unicode="a" horiz-adv-x="1132" d="M61 442.5q0 194.5 137.5 330.5t331.5 136q172 0 304 -110l20 84h197v-883h-217v86q-131 -111 -304 -111q-195 0 -332 136.5t-137 331zM399 272q69 -69 161 -69h2.5h3.5q94 0 159 69q68 72 68 170q0 102 -68 170q-66 70 -162 70q-94 0 -164 -70q-67 -71 -67 -167 q0 -99 67 -173z" />
<glyph unicode="b" horiz-adv-x="1210" d="M82 0v1524h262v-744q137 133 328 133q193 0 330 -137t137 -331.5t-136.5 -332t-330.5 -137.5q-190 0 -328 134v-109h-262zM475 274q65 -69 161 -69h2.5h3.5q94 0 159 69q67 71 67 167v3q0 96 -67 170q-66 70 -162 70q-98 0 -164 -70q-67 -73 -67 -167q0 -101 67 -173z " />
<glyph unicode="c" horiz-adv-x="948" d="M82 444q0 193 143.5 330t345.5 137q162 0 295 -94l-118 -209q-49 54 -122 66q-25 4 -50 4q-46 0 -88 -16q-66 -24 -113 -83t-47 -139q0 -72 44 -130t108 -86q48 -21 101 -20q19 0 37 2q74 9 130 64l114 -204q-133 -90 -291 -91q-203 0 -346 137.5t-143 331.5z" />
<glyph unicode="d" horiz-adv-x="1189" d="M72 440.5q0 194.5 137 331.5t330 137q190 0 327 -133v748h242v-1524h-242v104q-137 -133 -327 -133q-195 0 -331 137.5t-136 332zM342 440q0 -98 68 -170q65 -69 158 -69h3q98 0 164 69q68 72 68 170q0 96 -68 170q-66 70 -164 70q-96 0 -161 -70q-68 -74 -68 -170z" />
<glyph unicode="e" horiz-adv-x="1081" d="M72 444.5q0 194.5 137 331.5t331.5 137t332 -137t137.5 -332q0 -45 -9 -84h-659q18 -51 51 -86q65 -71 155 -71h2.5h3.5q83 0 148 65l193 -129q-137 -164 -354 -164q-193 0 -331 137.5t-138 332zM338 516h424q-16 57 -55 100q-63 70 -155.5 70t-158.5 -70 q-35 -41 -55 -100z" />
<glyph unicode="f" horiz-adv-x="1028" d="M102 643v240h168v166q0 219 109 352q113 137 291 137q165 0 282 -133l-186 -162q-39 49 -96 49q-49 0 -83 -28.5t-48.5 -73.5t-18.5 -78t-4 -63v-166h264v-240h-264v-643h-246v643h-168z" />
<glyph unicode="g" horiz-adv-x="1101" d="M41 -326q0 61 25 117q49 168 202 385q-159 122 -159 309q0 168 126.5 285t305.5 117q20 0 61 -4l422 80v-170l-150 -50q102 -109 103 -256q0 -166 -128 -282.5t-308 -116.5q-43 0 -95 10q-31 -57 -51 -106q78 10 156 10q242 0 371 -80q139 -88 139 -248q0 -162 -133 -247 q-125 -80 -377 -80t-377 80q-133 86 -133 247zM293 -326q0 -94 258 -94t258 94q0 45 -69.5 70t-188.5 25t-188.5 -26t-69.5 -69zM356 487q0 -74 56.5 -122t128.5 -48q78 0 132 51.5t54 118.5q0 72 -54.5 121t-132 49t-131 -51t-53.5 -119z" />
<glyph unicode="h" horiz-adv-x="1157" d="M82 0v1524h272v-697q121 82 264 82q193 0 330 -137t137 -332v-440h-270v440q0 96 -67 170q-66 70 -162 70q-98 0 -164 -70q-68 -74 -68 -170v-440h-272z" />
<glyph unicode="i" horiz-adv-x="428" d="M82 0h264v883h-264v-883zM82 1149h264v287h-264v-287z" />
<glyph unicode="j" horiz-adv-x="559" d="M31 -391v-250h94q147 0 244.5 112.5t97.5 286.5v1125h-266v-1125q0 -149 -100 -149h-1h-69zM199 1145h266v287h-266v-287z" />
<glyph unicode="k" horiz-adv-x="1120" d="M82 0v1524h287v-926l262 285h350l-358 -369l436 -514h-336l-295 358l-59 -61v-297h-287z" />
<glyph unicode="l" horiz-adv-x="425" d="M82 0h262v1524h-262v-1524z" />
<glyph unicode="m" horiz-adv-x="1718" d="M119 0v883h198l39 -70q109 94 224 94q190 0 311 -174q55 80 137 127t174 47q164 0 280.5 -137t116.5 -332v-438h-229v438q0 98 -55 169t-141 71q-82 0 -136.5 -68.5t-58.5 -156.5v-453h-229v438q0 98 -56.5 169t-140.5 71q-72 0 -120 -48t-68 -122v-508h-246z" />
<glyph unicode="n" horiz-adv-x="1097" d="M82 0v883h209l41 -78q117 102 252 102q178 0 305 -137t127 -332v-438h-250v438q0 96 -61.5 168t-151.5 72t-151.5 -71.5t-61.5 -168.5v-438h-258z" />
<glyph unicode="o" horiz-adv-x="1099" d="M61 442.5q0 194.5 142.5 330.5t345.5 136q205 0 347 -136t142 -330.5t-142 -331t-347 -136.5q-203 0 -345.5 136.5t-142.5 331zM391 270q62 -69 157 -69h2.5h3.5q92 0 161 69q65 71 65 171v3q0 98 -65 168q-68 72 -164 72q-98 0 -160 -72q-70 -68 -70 -169 q0 -102 70 -173z" />
<glyph unicode="p" horiz-adv-x="1218" d="M102 -641v1524h222l18 -103q137 133 328 133q193 0 330 -137t137 -331.5t-136.5 -332t-331 -137.5t-327.5 134v-750h-240zM473 274q65 -69 161 -69h3q96 0 162 69q67 72 67 170q0 96 -67 168q-66 72 -162 72q-98 0 -164 -72q-67 -71 -67 -165q0 -101 67 -173z" />
<glyph unicode="q" horiz-adv-x="1210" d="M92 444.5q0 194.5 137.5 331.5t331.5 137q188 0 326 -133l20 103h211v-1524h-231v750q-133 -133 -326 -134q-195 0 -332 137.5t-137 332zM362 444q0 -98 68 -170q69 -69 161 -69h3q96 0 162 69q67 67 67 167q0 103 -67 171q-66 72 -162 72t-164 -71.5t-68 -168.5z" />
<glyph unicode="r" horiz-adv-x="837" d="M82 0v883h199l36 -101q94 123 299 123q80 0 150 -24l-100 -228q-53 22 -103 22q-55 0 -107 -27q-98 -52 -118 -161v-487h-256z" />
<glyph unicode="s" horiz-adv-x="831" d="M43 135l164 166q61 -71 140 -101q51 -20 92 -19q22 -1 40 5q53 16 53 72q0 31 -21.5 52.5t-43 30.5t-64.5 24q-150 47 -220 103t-70 173q0 119 92 193.5t221 74.5q109 0 183.5 -23.5t168.5 -80.5l-119 -187q-83 59 -151 80q-37 11 -65 11q-23 1 -41 -7q-38 -18 -44 -65 q-2 -18 5.5 -32.5t29 -26t40 -17.5t56 -18.5t58.5 -18.5q104 -31 172.5 -98.5t68.5 -173.5q0 -109 -96 -193t-229 -84q-260 0 -420 160z" />
<glyph unicode="t" horiz-adv-x="804" d="M78 643v240h184v327h260v-327h205v-240h-205v-643h-260v643h-184z" />
<glyph unicode="u" horiz-adv-x="1056" d="M66 444v439h262v-432q0 -90 55 -160q63 -68 145 -68t144 68q57 68 57 160v432h262v-439q0 -193 -140 -331t-322.5 -138t-322.5 138.5t-140 330.5z" />
<glyph unicode="v" horiz-adv-x="1079" d="M61 883h254l226 -453l223 453h254l-440 -883h-76z" />
<glyph unicode="w" horiz-adv-x="1527" d="M61 883h254l226 -428l96 184l-127 244h254l225 -428l223 428h254l-458 -883h-35l-209 397l-207 -397h-33z" />
<glyph unicode="x" horiz-adv-x="1107" d="M72 883h297l184 -260l186 260h297l-323 -453l305 -430h-297l-168 236l-186 -236h-277l305 430z" />
<glyph unicode="y" horiz-adv-x="1261" d="M51 883h295l291 -490l270 490h287l-793 -1524h-286l366 696z" />
<glyph unicode="z" horiz-adv-x="1067" d="M113 0h813v225h-412l442 604v54h-831v-224h426l-438 -600v-59z" />
<glyph unicode="{" horiz-adv-x="772" d="M102 518q43 0 75 -8t51.5 -33.5t30.5 -46t15.5 -71t5.5 -82t1 -101.5v-22q0 -111 2 -160t18 -118t49 -109q49 -61 110.5 -77t209.5 -16v189q-43 -2 -75 3t-53.5 12t-34.5 26.5t-20.5 33t-10.5 47t-3 53t1 69t1 75.5q0 190 -25.5 281.5t-130.5 148.5q47 25 79 65 t47.5 74.5t23.5 100.5t9 101.5t-1 119.5t-2 115q0 123 31 151.5t164 26.5v188q-160 2 -234 -29.5t-117 -113.5q-18 -43 -27 -106.5t-10 -103.5t-1 -138v-25q0 -74 -1 -109.5t-10.5 -88t-27 -76t-53.5 -39.5t-87 -14v-193z" />
<glyph unicode="|" d="M551 -322h160v2180h-160v-2180z" />
<glyph unicode="}" horiz-adv-x="782" d="M102 -137v-189q147 0 209 15.5t111 77.5q33 41 49 109.5t18.5 117.5t2.5 160q0 213 20 270q33 94 158 94v193q-51 -2 -87 14t-53.5 38.5t-26.5 76t-10 88.5t-1 110v25q0 98 -1.5 138t-10.5 103.5t-27 106.5q-43 82 -117 113.5t-234 29.5v-188q133 2 164 -26.5t31 -151.5 q0 -31 -2 -115t-1 -119.5t9 -101.5t23.5 -100.5t47.5 -74.5t79 -65q-104 -57 -130 -148t-26 -282q0 -27 1 -76t1 -68.5t-3 -53t-10 -47t-20.5 -33t-35 -26.5t-53.5 -12t-75 -3z" />
<glyph unicode="&#xa2;" horiz-adv-x="956" d="M102 653.5q0 159.5 96.5 283.5t245.5 167v219h144v-203q150 -6 266 -94l-123 -201q-57 63 -143 70v-492q77 7 143 68l119 -197q-117 -84 -262 -90v-184h-144v203q-150 41 -246 166t-96 284.5zM319 649q0 -104 70 -174q24 -25 55 -43v434q-31 -18 -55 -43 q-70 -70 -70 -174z" />
<glyph unicode="&#xa3;" d="M135 0v236q123 0 190.5 57t67.5 199q0 100 -22 145h-219v117h135q-113 147 -113 321q0 176 117 278.5t293 102.5q170 0 289.5 -92t119.5 -250h-235q0 76 -87 101.5t-174 -14.5t-87 -126q0 -29 5 -54.5t18 -51t23.5 -41t31 -45t30.5 -43.5q35 -49 51 -86h379v-117h-334 q16 -66 17 -143q0 -59 -42 -143t-89 -115h573v-236h-938z" />
<glyph unicode="&#xa5;" horiz-adv-x="1345" d="M111 1436h317l254 -541l252 541h317l-358 -764h184v-144h-252v-2v-69h252v-144h-252v-313h-286v313h-252v144h252v69v2h-252v144h184z" />
<glyph unicode="&#xa8;" horiz-adv-x="937" d="M102 1548h269v269h-269v-269zM567 1548h269v269h-269v-269z" />
<glyph unicode="&#xad;" horiz-adv-x="966" d="M133 358h701v238h-701v-238z" />
<glyph unicode="&#xaf;" horiz-adv-x="921" d="M94 1589h731v228h-731v-228z" />
<glyph unicode="&#xb0;" horiz-adv-x="593" d="M92 1708q0 82 56.5 138.5t138.5 56.5t138 -56.5t56 -138.5t-56 -138.5t-138 -56.5t-138.5 56.5t-56.5 138.5zM199 1708q0 -39 25.5 -64.5t64.5 -25.5q37 0 61.5 25.5t24.5 64.5q0 41 -23.5 63.5t-62.5 22.5q-90 0 -90 -86z" />
<glyph unicode="&#xb1;" horiz-adv-x="966" d="M92 778v238h273v272h237v-272h272v-238h-272v-272h-237v272h-273zM133 135h701v238h-701v-238z" />
<glyph unicode="&#xb2;" horiz-adv-x="1236" d="M61 1006l261 360q-29 8 -41 14q-37 14 -70 47q-27 25 -49 70q-18 51 -19 88q0 39 19 86q18 45 49 72q31 31 70 49q45 16 88 16t86 -16q43 -20 69 -49q35 -31 49 -72q18 -41 18.5 -86t-18.5 -88q-4 -10 -69.5 -101t-126.5 -175l-64 -86h299v-129h-551zM279 1593.5 q0 -32.5 24.5 -57.5t57 -25t56 24t23.5 58q0 33 -23.5 56.5t-56 23.5t-57 -23.5t-24.5 -56z" />
<glyph unicode="&#xb3;" horiz-adv-x="1085" d="M61 1223h129q4 -41 34 -71t73 -30q45 0 77 32t32 77q0 43 -30 74.5t-73 31.5h-86v129h92q35 0 66 33t31 74q0 45 -32 76.5t-77 31.5q-43 0 -73 -29.5t-34 -72.5h-129q4 53 19 86q18 43 51 76q39 37 74 49q51 20 92 20q45 0 92 -20q35 -12 76 -49q33 -33 51.5 -76 t18.5 -92q0 -45 -19 -92q-23 -47 -51 -74l-6 -6l6 -4q33 -33 51 -74q18 -45 19 -92q0 -49 -18.5 -92t-51.5 -76t-76 -51.5t-92 -18.5q-47 0 -92 19q-41 18 -74 51t-51 76q-14 33 -19 84z" />
<glyph unicode="&#xb4;" d="M354 1638l123 -88l445 207l-236 168z" />
<glyph unicode="&#xb7;" horiz-adv-x="454" d="M92 747.5q0 51.5 42 93.5t93.5 42t93 -42t41.5 -93.5t-41.5 -93.5t-93 -42t-93.5 42t-42 93.5z" />
<glyph unicode="&#xb8;" horiz-adv-x="675" d="M115 -483l84 90q12 -10 37.5 -20.5t55.5 -13.5t54.5 17.5t30.5 67.5q6 63 -45 101t-107 44l-53 7v282h184v-205q201 -61 189 -260q-10 -115 -95 -166t-183.5 -32.5t-151.5 88.5z" />
<glyph unicode="&#xb9;" horiz-adv-x="942" d="M61 1008v157h113v471h-113v158h271v-629h100v-157h-371z" />
<glyph unicode="&#xba;" horiz-adv-x="636" d="M61 1310.5q0 106.5 79 181.5t190 75q113 0 190.5 -75t77.5 -181q0 -109 -78 -183.5t-190 -74.5q-111 0 -190 75.5t-79 182zM205 1311q0 -57 39 -97q33 -37 88 -36q51 -1 88 36q37 39 37 97q0 55 -37 92q-37 39 -88 39q-55 0 -88 -39q-39 -37 -39 -92z" />
<glyph unicode="&#xbd;" horiz-adv-x="1323" d="M61 885v157h113v471h-113v158h271v-629h100v-157h-371zM72 -57l110 -49l965 1714l-111 51zM711 2l260 360q-29 8 -41 15q-37 14 -70 47q-27 25 -49 70q-18 51 -18 88q0 39 18 86q18 45 49 71q31 31 70 49q45 16 88 16.5t86 -16.5q43 -20 70 -49q35 -31 49 -71 q18 -39 18 -86q0 -45 -18 -88q-4 -10 -70 -101.5t-129 -175.5l-61 -86h299v-129h-551zM928 590q0 -33 23.5 -57.5t58.5 -24.5q33 0 56.5 23.5t23.5 58.5q0 33 -24 56.5t-56.5 23.5t-57 -23.5t-24.5 -56.5z" />
<glyph unicode="&#xc0;" horiz-adv-x="1636" d="M72 0l731 1436h84l678 -1436h-318l-125 266h-594l-135 -266h-321zM506 1761l444 -207l123 88l-332 287zM676 553h311l-149 319z" />
<glyph unicode="&#xc1;" horiz-adv-x="1636" d="M72 0l731 1436h84l678 -1436h-318l-125 266h-594l-135 -266h-321zM649 1642l123 -88l445 207l-236 168zM676 553h311l-149 319z" />
<glyph unicode="&#xc2;" horiz-adv-x="1636" d="M72 0l731 1436h84l678 -1436h-318l-125 266h-594l-135 -266h-321zM444 1720l344 201h119l344 -201l-174 -168l-229 217l-230 -217zM676 553h311l-149 319z" />
<glyph unicode="&#xc3;" horiz-adv-x="1636" d="M72 0l731 1436h84l678 -1436h-318l-125 266h-594l-135 -266h-321zM420 1655l135 -86q78 94 170 94q84 0 152 -41q113 -66 198 -66q51 0 99.5 20.5t80 49.5t57 58.5t36.5 50.5l12 20l-121 100q-88 -96 -164 -96q-29 0 -84 35q-135 80 -262 80q-178 0 -309 -219zM676 553 h311l-149 319z" />
<glyph unicode="&#xc4;" horiz-adv-x="1636" d="M72 0l731 1436h84l678 -1436h-318l-125 266h-594l-135 -266h-321zM500 1552h268v269h-268v-269zM676 553h311l-149 319zM965 1552h268v269h-268v-269z" />
<glyph unicode="&#xc5;" horiz-adv-x="1636" d="M72 0l731 1436h84l678 -1436h-318l-125 266h-594l-135 -266h-321zM653 1722q0 84 56.5 139.5t138.5 55.5t138 -56.5t56 -138.5t-56 -138t-138 -56t-138.5 55t-56.5 139zM676 553h311l-149 319zM760 1722q0 -39 25.5 -64.5t64.5 -25.5q37 0 61.5 25.5t24.5 64.5 q0 41 -23.5 63.5t-62.5 22.5q-90 0 -90 -86z" />
<glyph unicode="&#xc6;" horiz-adv-x="1945" d="M92 -2l731 1438h1030v-287h-649v-264h533v-287h-533v-311h643v-285h-909v264h-387l-137 -268h-322zM696 553h242v319h-80z" />
<glyph unicode="&#xc7;" horiz-adv-x="1484" d="M133 715q0 307 218 525t526 218q256 0 458 -158l-184 -213q-102 66 -226 71t-227.5 -44t-174 -154.5t-70.5 -244.5q0 -145 73.5 -254t181 -156t234.5 -36.5t225 85.5l185 -211q-209 -172 -475 -172h-31v-84q201 -61 188 -260q-10 -115 -95 -166t-183.5 -32.5t-151.5 88.5 l84 90q12 -10 38 -20.5t55.5 -13.5t54 17.5t30.5 67.5q6 63 -45 101t-104 44l-55 7v194q-231 70 -380 266.5t-149 444.5z" />
<glyph unicode="&#xc8;" horiz-adv-x="1222" d="M133 0v1436h957v-287h-670v-264h553v-287h-553v-311h663v-287h-950zM270 1757l445 -207l123 88l-332 287z" />
<glyph unicode="&#xc9;" horiz-adv-x="1222" d="M133 0v1436h957v-287h-670v-264h553v-287h-553v-311h663v-287h-950zM414 1638l123 -88l444 207l-236 168z" />
<glyph unicode="&#xca;" horiz-adv-x="1222" d="M133 0v1436h957v-287h-670v-264h553v-287h-553v-311h663v-287h-950zM209 1716l344 201h119l344 -201l-174 -168l-230 217l-229 -217z" />
<glyph unicode="&#xcb;" horiz-adv-x="1222" d="M133 0v1436h957v-287h-670v-264h553v-287h-553v-311h663v-287h-950zM264 1548h268v269h-268v-269zM729 1548h268v269h-268v-269z" />
<glyph unicode="&#xcc;" horiz-adv-x="858" d="M86 1755l444 -207l123 88l-331 287zM133 0v287h154v862h-154v287h592v-287h-152v-862h152v-287h-592z" />
<glyph unicode="&#xcd;" horiz-adv-x="858" d="M133 0v287h154v862h-154v287h592v-287h-152v-862h152v-287h-592zM229 1636l123 -88l445 207l-236 168z" />
<glyph unicode="&#xce;" horiz-adv-x="858" d="M25 1714l344 201h118l344 -201l-174 -168l-229 217l-229 -217zM133 0v287h154v862h-154v287h592v-287h-152v-862h152v-287h-592z" />
<glyph unicode="&#xcf;" horiz-adv-x="858" d="M80 1546h268v269h-268v-269zM133 0v287h154v862h-154v287h592v-287h-152v-862h152v-287h-592zM545 1546h268v269h-268v-269z" />
<glyph unicode="&#xd0;" horiz-adv-x="1388" d="M6 588h701v237h-701v-237zM133 2v1434h406q145 0 278 -56q129 -55 227 -153q102 -102 154 -230q57 -129 57 -278q0 -152 -57 -281q-51 -129 -154 -227q-104 -104 -227 -154q-129 -57 -278 -57h-289v2h-117zM420 287h119q178 0 304 127t126 305t-126 304t-304 126h-119 v-862z" />
<glyph unicode="&#xd1;" horiz-adv-x="1435" d="M133 0h287v838l807 -838h76v1436h-287v-803l-793 803h-90v-1436zM289 1655l135 -86q78 94 170 94q84 0 151 -41q113 -66 199 -66q51 0 99.5 20.5t80 49.5t57 58.5t36.5 50.5l12 20l-121 100q-88 -96 -164 -96q-29 0 -84 35q-135 80 -262 80q-178 0 -309 -219z" />
<glyph unicode="&#xd2;" horiz-adv-x="1712" d="M113 719q0 307 218 525t525 218t525 -218t218 -525t-218 -525.5t-525 -218.5t-525 218.5t-218 525.5zM408 718.5q0 -186.5 131 -317.5t317 -131t317.5 131t131.5 317.5t-131.5 317.5t-317.5 131t-317 -131t-131 -317.5zM514 1761l444 -207l123 88l-331 287z" />
<glyph unicode="&#xd3;" horiz-adv-x="1712" d="M113 719q0 307 218 525t525 218t525 -218t218 -525t-218 -525.5t-525 -218.5t-525 218.5t-218 525.5zM408 718.5q0 -186.5 131 -317.5t317 -131t317.5 131t131.5 317.5t-131.5 317.5t-317.5 131t-317 -131t-131 -317.5zM657 1642l123 -88l445 207l-236 168z" />
<glyph unicode="&#xd4;" horiz-adv-x="1712" d="M113 719q0 307 218 525t525 218t525 -218t218 -525t-218 -525.5t-525 -218.5t-525 218.5t-218 525.5zM408 718.5q0 -186.5 131 -317.5t317 -131t317.5 131t131.5 317.5t-131.5 317.5t-317.5 131t-317 -131t-131 -317.5zM453 1720l344 201h118l345 -201l-175 -168 l-229 217l-229 -217z" />
<glyph unicode="&#xd5;" horiz-adv-x="1712" d="M113 719q0 307 218 525t525 218t525 -218t218 -525t-218 -525.5t-525 -218.5t-525 218.5t-218 525.5zM408 718.5q0 -186.5 131 -317.5t317 -131t317.5 131t131.5 317.5t-131.5 317.5t-317.5 131t-317 -131t-131 -317.5zM428 1655l135 -86q78 94 170 94q84 0 152 -41 q113 -66 198 -66q51 0 99.5 20.5t80 49.5t57.5 58.5t36 50.5l12 20l-121 100q-88 -96 -164 -96q-29 0 -84 35q-135 80 -262 80q-178 0 -309 -219z" />
<glyph unicode="&#xd6;" horiz-adv-x="1712" d="M113 719q0 307 218 525t525 218t525 -218t218 -525t-218 -525.5t-525 -218.5t-525 218.5t-218 525.5zM408 718.5q0 -186.5 131 -317.5t317 -131t317.5 131t131.5 317.5t-131.5 317.5t-317.5 131t-317 -131t-131 -317.5zM508 1552h268v269h-268v-269zM973 1552h268v269 h-268v-269z" />
<glyph unicode="&#xd7;" horiz-adv-x="935" d="M123 285l192 192l-192 193l168 168l192 -193l193 193l168 -168l-193 -193l193 -192l-168 -168l-193 192l-192 -192z" />
<glyph unicode="&#xd8;" horiz-adv-x="1712" d="M113 715q0 307 218 525t525 218q268 0 475 -170l162 162l98 -98l-161 -162q170 -207 169 -475q0 -307 -218 -525.5t-525 -218.5q-264 0 -473 172l-162 -161l-98 98l162 162q-172 209 -172 473zM399 715q0 -152 88 -271l641 639q-119 88 -272 88q-190 0 -323.5 -133 t-133.5 -323zM586 346q119 -88 270 -88q190 0 323.5 133t133.5 324q0 153 -88 272z" />
<glyph unicode="&#xd9;" horiz-adv-x="1316" d="M102 528v908h287v-906q0 -111 80 -190q78 -78 190 -78q111 0 189 78q76 76 80 188h-2v908h286v-906h2q0 -229 -162.5 -392t-392 -163t-392.5 162t-165 391zM317 1761l445 -207l123 88l-332 287z" />
<glyph unicode="&#xda;" horiz-adv-x="1316" d="M102 528v908h287v-906q0 -111 80 -190q78 -78 190 -78q111 0 189 78q76 76 80 188h-2v908h286v-906h2q0 -229 -162.5 -392t-392 -163t-392.5 162t-165 391zM461 1642l123 -88l444 207l-235 168z" />
<glyph unicode="&#xdb;" horiz-adv-x="1316" d="M102 528v908h287v-906q0 -111 80 -190q78 -78 190 -78q111 0 189 78q76 76 80 188h-2v908h286v-906h2q0 -229 -162.5 -392t-392 -163t-392.5 162t-165 391zM256 1720l344 201h119l344 -201l-174 -168l-230 217l-229 -217z" />
<glyph unicode="&#xdc;" horiz-adv-x="1316" d="M102 528v908h287v-906q0 -111 80 -190q78 -78 190 -78q111 0 189 78q76 76 80 188h-2v908h286v-906h2q0 -229 -162.5 -392t-392 -163t-392.5 162t-165 391zM311 1552h269v269h-269v-269zM776 1552h268v269h-268v-269z" />
<glyph unicode="&#xdd;" horiz-adv-x="1406" d="M92 1436h318l295 -541l292 541h318l-467 -910v-526h-287v526zM506 1642l123 -88l444 207l-235 168z" />
<glyph unicode="&#xde;" d="M184 0v1436h236v-129h172q195 0 332 -137.5t137 -332t-137.5 -331.5t-331.5 -137h-172v-369h-236zM420 596h172q102 0 166 70q66 72 65.5 172t-65.5 170q-61 72 -166 71h-172v-483z" />
<glyph unicode="&#xdf;" d="M188 0h222v1034q0 215 182 215q98 0 144 -50t46 -109q0 -47 -5 -80t-24.5 -78t-70.5 -69.5t-129 -24.5v-197q84 0 188 -49q193 -90 185 -256q-2 -94 -55.5 -121t-168.5 -12l-135 26l-39 -198q4 -4 35 -15.5t94.5 -26t124.5 -14.5q170 0 265.5 87.5t99.5 269.5 q4 152 -90 280.5t-236 153.5q61 18 103.5 79.5t56.5 125t14 123.5q0 172 -107.5 270t-295.5 98q-176 0 -290 -113.5t-114 -322.5v-1026z" />
<glyph unicode="&#xe0;" horiz-adv-x="1132" d="M61 442.5q0 194.5 137.5 330.5t331.5 136q172 0 304 -110l20 84h197v-883h-217v86q-131 -111 -304 -111q-195 0 -332 136.5t-137 331zM274 1380l445 -206l123 88l-332 286zM332 442q0 -96 67 -170q70 -70 164 -69q96 -1 162 69q68 72 68 170q0 102 -68 170 q-66 70 -162 70q-94 0 -164 -70q-68 -72 -67 -170z" />
<glyph unicode="&#xe1;" horiz-adv-x="1132" d="M61 442.5q0 194.5 137.5 330.5t331.5 136q172 0 304 -110l20 84h197v-883h-217v86q-131 -111 -304 -111q-195 0 -332 136.5t-137 331zM332 442q0 -96 67 -170q70 -70 164 -69q96 -1 162 69q68 72 68 170q0 102 -68 170q-66 70 -162 70q-94 0 -164 -70q-68 -72 -67 -170z M418 1262l123 -88l444 206l-235 168z" />
<glyph unicode="&#xe2;" horiz-adv-x="1132" d="M61 442.5q0 194.5 137.5 330.5t331.5 136q172 0 304 -110l20 84h197v-883h-217v86q-131 -111 -304 -111q-195 0 -332 136.5t-137 331zM213 1339l344 201h119l344 -201l-174 -168l-230 218l-229 -218zM332 442q0 -96 67 -170q70 -70 164 -69q96 -1 162 69q68 72 68 170 q0 102 -68 170q-66 70 -162 70q-94 0 -164 -70q-68 -72 -67 -170z" />
<glyph unicode="&#xe3;" horiz-adv-x="1132" d="M61 442.5q0 194.5 137.5 330.5t331.5 136q172 0 304 -110l20 84h197v-883h-217v86q-131 -111 -304 -111q-195 0 -332 136.5t-137 331zM188 1274l136 -86q78 94 170 94q84 0 151 -41q113 -66 199 -65q51 0 99 20.5t80 49t57.5 58t37.5 50.5l10 20l-120 101 q-88 -96 -164 -97q-29 0 -84 35q-135 80 -262 80q-179 0 -310 -219zM332 442q0 -96 67 -170q70 -70 164 -69q96 -1 162 69q68 72 68 170q0 102 -68 170q-66 70 -162 70q-94 0 -164 -70q-68 -72 -67 -170z" />
<glyph unicode="&#xe4;" horiz-adv-x="1132" d="M61 442.5q0 194.5 137.5 330.5t331.5 136q172 0 304 -110l20 84h197v-883h-217v86q-131 -111 -304 -111q-195 0 -332 136.5t-137 331zM268 1171h269v269h-269v-269zM332 442q0 -96 67 -170q70 -70 164 -69q96 -1 162 69q68 72 68 170q0 102 -68 170q-66 70 -162 70 q-94 0 -164 -70q-68 -72 -67 -170zM733 1171h268v269h-268v-269z" />
<glyph unicode="&#xe5;" horiz-adv-x="1132" d="M61 442.5q0 194.5 137.5 330.5t331.5 136q172 0 304 -110l20 84h197v-883h-217v86q-131 -111 -304 -111q-195 0 -332 136.5t-137 331zM332 442q0 -96 67 -170q70 -70 164 -69q96 -1 162 69q68 72 68 170q0 102 -68 170q-66 70 -162 70q-94 0 -164 -70q-68 -72 -67 -170z M422 1341q0 84 55 139.5t139 55.5q82 0 138.5 -56.5t56.5 -138t-56.5 -138t-138.5 -56.5q-84 0 -139 55t-55 139zM528 1341q0 -39 25.5 -64.5t64.5 -25.5q37 0 62 26t25 64q0 41 -24 63.5t-63 22.5q-90 0 -90 -86z" />
<glyph unicode="&#xe6;" horiz-adv-x="1859" d="M82 438.5q0 194.5 137 331.5t332 137q172 0 303 -110v86h217v-39q106 66 238 65q195 0 332 -137t137 -332q0 -45 -9 -84h-659q18 -51 51 -86q66 -72 158 -71q86 0 151 65l193 -129q-137 -164 -354 -164q-115 0 -214.5 51.5t-164.5 141.5q-63 -90 -163.5 -142.5 t-215.5 -52.5q-195 0 -332 137.5t-137 332zM352 438q0 -96 68 -170q70 -70 164 -69q95 -1 161 69q68 72 68 170q0 102 -68 170q-66 70 -161 70q-94 0 -164 -70q-68 -72 -68 -170zM1106 512h424q-16 57 -55 100q-63 70 -155.5 70t-158.5 -70q-35 -41 -55 -100z" />
<glyph unicode="&#xe7;" horiz-adv-x="948" d="M82 444q0 193 143.5 330t345.5 137q162 0 295 -94l-118 -209q-49 53 -122 65.5t-138.5 -11t-112.5 -83t-47 -139.5q0 -72 44 -130t107.5 -85.5t138.5 -18.5t130 64l114 -204q-131 -88 -284 -91v-88q201 -61 188 -260q-10 -115 -95 -166t-183.5 -32.5t-151.5 88.5l84 90 q12 -10 37.5 -20.5t55.5 -13.5t54.5 17.5t30.5 67.5q6 63 -45 101t-107 44l-53 7v198q-139 51 -225 170t-86 266z" />
<glyph unicode="&#xe8;" horiz-adv-x="1081" d="M72 444.5q0 194.5 137 331.5t331.5 137t332 -137t137.5 -332q0 -45 -9 -84h-659q18 -51 51 -86q66 -72 158 -71q85 -1 151 65l193 -129q-137 -164 -354 -164q-193 0 -331 137.5t-138 332zM203 1380l444 -206l123 88l-332 286zM338 516h424q-16 57 -55 100 q-63 70 -155.5 70t-158.5 -70q-35 -41 -55 -100z" />
<glyph unicode="&#xe9;" horiz-adv-x="1081" d="M72 444.5q0 194.5 137 331.5t331.5 137t332 -137t137.5 -332q0 -45 -9 -84h-659q18 -51 51 -86q66 -72 158 -71q85 -1 151 65l193 -129q-137 -164 -354 -164q-193 0 -331 137.5t-138 332zM338 516h424q-16 57 -55 100q-63 70 -155.5 70t-158.5 -70q-35 -41 -55 -100z M346 1262l123 -88l444 206l-235 168z" />
<glyph unicode="&#xea;" horiz-adv-x="1081" d="M72 444.5q0 194.5 137 331.5t331.5 137t332 -137t137.5 -332q0 -45 -9 -84h-659q18 -51 51 -86q66 -72 158 -71q85 -1 151 65l193 -129q-137 -164 -354 -164q-193 0 -331 137.5t-138 332zM141 1339l344 201h119l344 -201l-174 -168l-229 218l-230 -218zM338 516h424 q-16 57 -55 100q-63 70 -155.5 70t-158.5 -70q-35 -41 -55 -100z" />
<glyph unicode="&#xeb;" horiz-adv-x="1081" d="M72 444.5q0 194.5 137 331.5t331.5 137t332 -137t137.5 -332q0 -45 -9 -84h-659q18 -51 51 -86q66 -72 158 -71q85 -1 151 65l193 -129q-137 -164 -354 -164q-193 0 -331 137.5t-138 332zM197 1171h268v269h-268v-269zM338 516h424q-16 57 -55 100q-63 70 -155.5 70 t-158.5 -70q-35 -41 -55 -100zM662 1171h268v269h-268v-269z" />
<glyph unicode="&#xec;" horiz-adv-x="428" d="M-127 1380l444 -206l123 88l-331 286zM82 0h264v883h-264v-883z" />
<glyph unicode="&#xed;" horiz-adv-x="428" d="M16 1262l123 -88l445 206l-236 168zM82 0h264v883h-264v-883z" />
<glyph unicode="&#xee;" horiz-adv-x="428" d="M-188 1339l344 201h118l344 -201l-174 -168l-229 218l-229 -218zM82 0h264v883h-264v-883z" />
<glyph unicode="&#xef;" horiz-adv-x="428" d="M-133 1171h268v269h-268v-269zM82 0h264v883h-264v-883zM332 1171h268v269h-268v-269z" />
<glyph unicode="&#xf0;" d="M162 420q0 90 37 174q33 76 100 141q57 57 147 94q82 35 183 35q23 0 67 -4q-92 129 -233 242l-250 -141l-45 86l209 120q-72 51 -195 125l105 113q160 -88 252 -148l202 117l45 -86l-157 -90q197 -139 329 -321q121 -164 136 -383v-21q4 -37 4 -53q0 -92 -37 -172 q-37 -82 -100 -142q-66 -61 -150 -96q-88 -35 -182 -35t-183 35q-86 35 -147 96q-68 66 -100 142q-37 80 -37 172zM420 420q0 -86 61.5 -147.5t147.5 -61.5q88 0 148.5 61.5t60.5 147.5q0 88 -60.5 148.5t-148.5 60.5q-86 0 -147.5 -60.5t-61.5 -148.5z" />
<glyph unicode="&#xf1;" horiz-adv-x="1097" d="M82 0v883h209l41 -78q117 102 252 102q178 0 305 -137t127 -332v-438h-250v438q0 96 -61.5 168t-151.5 72t-151.5 -71.5t-61.5 -168.5v-438h-258zM117 1274l135 -86q78 94 170 94q84 0 151 -41q113 -66 199 -65q51 0 99.5 20.5t80 49t57 58t35.5 50.5l13 20l-121 101 q-88 -96 -164 -97q-29 0 -84 35q-135 80 -262 80q-178 0 -309 -219z" />
<glyph unicode="&#xf2;" horiz-adv-x="1099" d="M61 442.5q0 194.5 142.5 330.5t345.5 136q205 0 347 -136t142 -330.5t-142 -331t-347 -136.5q-203 0 -345.5 136.5t-142.5 331zM203 1376l444 -207l123 88l-332 287zM321.5 442q0.5 -102 69.5 -172q63 -70 160 -69q94 -1 164 69q66 72 65 174q0 98 -65 168 q-68 72 -164 72q-98 0 -160 -72q-70 -68 -69.5 -170z" />
<glyph unicode="&#xf3;" horiz-adv-x="1099" d="M61 442.5q0 194.5 142.5 330.5t345.5 136q205 0 347 -136t142 -330.5t-142 -331t-347 -136.5q-203 0 -345.5 136.5t-142.5 331zM321.5 442q0.5 -102 69.5 -172q63 -70 160 -69q94 -1 164 69q66 72 65 174q0 98 -65 168q-68 72 -164 72q-98 0 -160 -72q-70 -68 -69.5 -170 zM346 1257l123 -88l444 207l-235 168z" />
<glyph unicode="&#xf4;" horiz-adv-x="1099" d="M61 442.5q0 194.5 142.5 330.5t345.5 136q205 0 347 -136t142 -330.5t-142 -331t-347 -136.5q-203 0 -345.5 136.5t-142.5 331zM141 1335l344 201h119l344 -201l-174 -168l-229 217l-230 -217zM321.5 442q0.5 -102 69.5 -172q63 -70 160 -69q94 -1 164 69q66 72 65 174 q0 98 -65 168q-68 72 -164 72q-98 0 -160 -72q-70 -68 -69.5 -170z" />
<glyph unicode="&#xf5;" horiz-adv-x="1099" d="M61 442.5q0 194.5 142.5 330.5t345.5 136q205 0 347 -136t142 -330.5t-142 -331t-347 -136.5q-203 0 -345.5 136.5t-142.5 331zM117 1270l135 -86q78 94 170 94q84 0 151 -41q113 -66 199 -66q51 0 99.5 20.5t80 49.5t57 58.5t35.5 50.5l13 20l-121 100q-88 -96 -164 -96 q-29 0 -84 35q-135 80 -262 80q-178 0 -309 -219zM321.5 442q0.5 -102 69.5 -172q63 -70 160 -69q94 -1 164 69q66 72 65 174q0 98 -65 168q-68 72 -164 72q-98 0 -160 -72q-70 -68 -69.5 -170z" />
<glyph unicode="&#xf6;" horiz-adv-x="1099" d="M61 442.5q0 194.5 142.5 330.5t345.5 136q205 0 347 -136t142 -330.5t-142 -331t-347 -136.5q-203 0 -345.5 136.5t-142.5 331zM197 1167h268v269h-268v-269zM321.5 442q0.5 -102 69.5 -172q63 -70 160 -69q94 -1 164 69q66 72 65 174q0 98 -65 168q-68 72 -164 72 q-98 0 -160 -72q-70 -68 -69.5 -170zM662 1167h268v269h-268v-269z" />
<glyph unicode="&#xf7;" horiz-adv-x="1150" d="M133 358h885v238h-885v-238zM457 -4h239v240h-239v-240zM457 741h239v240h-239v-240z" />
<glyph unicode="&#xf8;" horiz-adv-x="1099" d="M86 444q0 195 137 332t330 137q154 0 278 -92l74 72l99 -96l-11 -13l-63 -61q92 -125 92 -279q0 -195 -137 -332t-332 -137q-158 0 -279 93l-73 -74l-99 98l74 72q-90 123 -90 280zM342 444q0 -53 18 -96l308 307q-45 31 -105 31q-94 0 -155 -72q-66 -70 -66 -170z M446 238q51 -35 117 -35q92 0 156 69q66 72 65 172q1 60 -24 109z" />
<glyph unicode="&#xf9;" horiz-adv-x="1056" d="M66 444v439h262v-432q0 -90 55 -160q63 -68 145 -68t144 68q57 68 57 160v432h262v-439q0 -193 -140 -331t-322.5 -138t-322.5 138.5t-140 330.5zM186 1376l445 -207l123 88l-332 287z" />
<glyph unicode="&#xfa;" horiz-adv-x="1056" d="M66 444v439h262v-432q0 -90 55 -160q63 -68 145 -68t144 68q57 68 57 160v432h262v-439q0 -193 -140 -331t-322.5 -138t-322.5 138.5t-140 330.5zM330 1257l123 -88l444 207l-235 168z" />
<glyph unicode="&#xfb;" horiz-adv-x="1056" d="M66 444v439h262v-432q0 -90 55 -160q63 -68 145 -68t144 68q57 68 57 160v432h262v-439q0 -193 -140 -331t-322.5 -138t-322.5 138.5t-140 330.5zM125 1335l344 201h119l344 -201l-174 -168l-230 217l-229 -217z" />
<glyph unicode="&#xfc;" horiz-adv-x="1056" d="M66 444v439h262v-432q0 -90 55 -160q63 -68 145 -68t144 68q57 68 57 160v432h262v-439q0 -193 -140 -331t-322.5 -138t-322.5 138.5t-140 330.5zM180 1167h269v269h-269v-269zM645 1167h268v269h-268v-269z" />
<glyph unicode="&#xfd;" horiz-adv-x="1261" d="M51 883h295l291 -490l270 490h287l-793 -1524h-286l366 696zM467 1262l123 -88l444 206l-235 168z" />
<glyph unicode="&#xfe;" d="M172 -262v1735h236v-623q109 63 233 63q195 0 332 -137t137 -331.5t-137 -332t-332 -137.5q-125 0 -233 64v-301h-236zM430 444q0 -100 66 -172q63 -70 155.5 -70t155.5 70q66 72 65.5 172.5t-65.5 169.5q-61 72 -155.5 72t-155.5 -72q-66 -70 -66 -170z" />
<glyph unicode="&#xff;" horiz-adv-x="1261" d="M51 883h295l291 -490l270 490h287l-793 -1524h-286l366 696zM317 1171h269v269h-269v-269zM782 1171h269v269h-269v-269z" />
<glyph unicode="&#x152;" horiz-adv-x="2123" d="M113 719q0 307 218 525t525 218q96 0 199 -26h956v-287h-670v-264h553v-287h-553v-311h664v-285h-950q-102 -27 -199 -27q-307 0 -525 218.5t-218 525.5zM399 718.5q0 -190.5 133.5 -323.5t323.5 -133q103 0 199 45v823q-90 45 -199 46q-190 0 -323.5 -133.5t-133.5 -324 z" />
<glyph unicode="&#x153;" horiz-adv-x="1818" d="M82 440.5q0 194.5 137 331.5t330 137q221 0 358 -168q145 168 361 168q195 0 332 -137t137 -332q0 -45 -8 -84h-660q18 -51 51 -86q66 -72 158 -71q86 -1 152 65l192 -129q-137 -164 -354 -164t-359 168q-141 -168 -360 -168q-195 0 -331 137.5t-136 332zM337.5 440 q0.5 -100 65.5 -172q63 -70 156 -70t156 70q66 72 65.5 172.5t-65.5 169.5q-61 72 -155.5 72t-156.5 -72q-66 -70 -65.5 -170zM1065 512h424q-16 57 -55 100q-63 70 -155.5 70t-158.5 -70q-35 -41 -55 -100z" />
<glyph unicode="&#x178;" horiz-adv-x="1406" d="M92 1436h318l295 -541l292 541h318l-467 -910v-526h-287v526zM356 1552h269v269h-269v-269zM821 1552h269v269h-269v-269z" />
<glyph unicode="&#x2c6;" d="M213 1716l344 201h119l344 -201l-174 -168l-230 217l-229 -217z" />
<glyph unicode="&#x2dc;" horiz-adv-x="1204" d="M63 1651l136 -86q78 94 170 94q84 0 151 -41q113 -66 199 -66q51 0 99 20.5t80 49.5t57.5 58.5t35.5 50.5l13 20l-121 100q-88 -96 -164 -96q-29 0 -84 35q-135 80 -262 80q-179 0 -310 -219z" />
<glyph unicode="&#x2000;" horiz-adv-x="964" />
<glyph unicode="&#x2001;" horiz-adv-x="1929" />
<glyph unicode="&#x2002;" horiz-adv-x="964" />
<glyph unicode="&#x2003;" horiz-adv-x="1929" />
<glyph unicode="&#x2004;" horiz-adv-x="643" />
<glyph unicode="&#x2005;" horiz-adv-x="482" />
<glyph unicode="&#x2006;" horiz-adv-x="321" />
<glyph unicode="&#x2007;" horiz-adv-x="321" />
<glyph unicode="&#x2008;" horiz-adv-x="241" />
<glyph unicode="&#x2009;" horiz-adv-x="385" />
<glyph unicode="&#x200a;" horiz-adv-x="107" />
<glyph unicode="&#x2010;" horiz-adv-x="966" d="M133 358h701v238h-701v-238z" />
<glyph unicode="&#x2011;" horiz-adv-x="966" d="M133 358h701v238h-701v-238z" />
<glyph unicode="&#x2012;" horiz-adv-x="966" d="M133 358h701v238h-701v-238z" />
<glyph unicode="&#x2013;" horiz-adv-x="1171" d="M61 358h1049v238h-1049v-238z" />
<glyph unicode="&#x2014;" horiz-adv-x="1314" d="M133 358h1049v238h-1049v-238z" />
<glyph unicode="&#x2018;" horiz-adv-x="555" d="M133 1028h289l-12 428h-150z" />
<glyph unicode="&#x2019;" horiz-adv-x="360" d="M61 1456l13 -428h149l127 428h-289z" />
<glyph unicode="&#x201c;" horiz-adv-x="802" d="M61 1028h289l-12 428h-150zM453 1028h288l-12 428h-149z" />
<glyph unicode="&#x201d;" horiz-adv-x="833" d="M31 1456l12 -428h150l126 428h-288zM453 1456l12 -428h149l127 428h-288z" />
<glyph unicode="&#x201e;" horiz-adv-x="833" d="M31 283l12 -428h150l126 428h-288zM453 283l12 -428h149l127 428h-288z" />
<glyph unicode="&#x2026;" horiz-adv-x="1134" d="M92 0h268v268h-268v-268zM465 0h268v268h-268v-268zM836 0h268v268h-268v-268z" />
<glyph unicode="&#x202f;" horiz-adv-x="385" />
<glyph unicode="&#x205f;" horiz-adv-x="482" />
<glyph unicode="&#x20ac;" horiz-adv-x="1411" d="M102 459v164h113q-6 47 -6 96l2 47h-109v164h136q68 233 258 382.5t434 149.5q195 0 362 -100l-180 -229q-86 43 -182 43q-178 0 -303 -132q-55 -59 -82 -114h377v-164h-424q-2 -16 -2 -47q0 -45 10 -96h416v-164h-349q33 -45 54 -66q125 -131 303 -131q102 0 198 51 l181 -227q-176 -111 -379 -111q-229 0 -413.5 134.5t-262.5 349.5h-152z" />
<glyph unicode="&#x25fc;" horiz-adv-x="880" d="M0 0v881h881v-881h-881z" />
</font>
</defs>
</svg>
